<svg xmlns="http://www.w3.org/2000/svg" xmlns:xlink="http://www.w3.org/1999/xlink" viewBox="0 0 230 341.6"><defs><style>.cls-1{fill:url(#未命名的渐变_2);}.cls-2{fill:#0063ff;}.cls-3{fill:url(#未命名的渐变_2-2);}.cls-4{fill:url(#未命名的渐变_2-3);}.cls-5{fill:url(#未命名的渐变_2-4);}.cls-6{fill:url(#未命名的渐变_2-6);}.cls-7{fill:url(#未命名的渐变_2-7);}.cls-8{fill:url(#未命名的渐变_2-8);}.cls-9{fill:url(#未命名的渐变_2-9);}.cls-10{fill:url(#未命名的渐变_2-10);}.cls-11{fill:url(#未命名的渐变_2-11);}.cls-12{fill:url(#未命名的渐变_2-12);}.cls-13{fill:url(#未命名的渐变_2-13);}.cls-14{fill:url(#未命名的渐变_2-14);}.cls-15{fill:url(#未命名的渐变_2-15);}.cls-16{fill:url(#未命名的渐变_2-16);}.cls-17{fill:#fff;}</style><linearGradient id="未命名的渐变_2" x1="25.83" y1="117.02" x2="204.01" y2="117.02" gradientUnits="userSpaceOnUse"><stop offset="0" stop-color="#31afff"/><stop offset="1" stop-color="#0062ff"/></linearGradient><linearGradient id="未命名的渐变_2-2" x1="61.23" y1="167.59" x2="61.23" y2="133.49" xlink:href="#未命名的渐变_2"/><linearGradient id="未命名的渐变_2-3" x1="140.23" y1="133" x2="140.23" y2="87.54" xlink:href="#未命名的渐变_2"/><linearGradient id="未命名的渐变_2-4" x1="151.23" y1="75.05" x2="151.23" y2="39.49" xlink:href="#未命名的渐变_2"/><linearGradient id="未命名的渐变_2-6" x1="175.23" y1="41.54" x2="175.23" y2="19" xlink:href="#未命名的渐变_2"/><linearGradient id="未命名的渐变_2-7" x1="81.06" y1="182.09" x2="81.06" y2="164.49" xlink:href="#未命名的渐变_2"/><linearGradient id="未命名的渐变_2-8" x1="122.23" y1="195.03" x2="122.23" y2="164.49" xlink:href="#未命名的渐变_2"/><linearGradient id="未命名的渐变_2-9" x1="107.73" y1="164.05" x2="107.73" y2="125" xlink:href="#未命名的渐变_2"/><linearGradient id="未命名的渐变_2-10" x1="161.73" y1="169.72" x2="161.73" y2="139" xlink:href="#未命名的渐变_2"/><linearGradient id="未命名的渐变_2-11" x1="79.55" y1="162.54" x2="79.55" y2="116" xlink:href="#未命名的渐变_2"/><linearGradient id="未命名的渐变_2-12" x1="174.22" y1="160.77" x2="174.22" y2="121" xlink:href="#未命名的渐变_2"/><linearGradient id="未命名的渐变_2-13" x1="113.56" y1="96.54" x2="113.56" y2="64" xlink:href="#未命名的渐变_2"/><linearGradient id="未命名的渐变_2-14" x1="157.56" y1="24.54" x2="157.56" y2="0" xlink:href="#未命名的渐变_2"/><linearGradient id="未命名的渐变_2-15" x1="140.56" y1="180.81" x2="140.56" y2="153" xlink:href="#未命名的渐变_2"/><linearGradient id="未命名的渐变_2-16" x1="93.25" y1="179.4" x2="105.85" y2="179.4" xlink:href="#未命名的渐变_2"/></defs><title>资源 153</title><g id="图层_2" data-name="图层 2"><g id="图层_1-2" data-name="图层 1"><path class="cls-1" d="M27.83,167.3V153h-2v15.45l25.68,14.83V181ZM114.92,14.14,98.51,23.61v2.31l16.41-9.47,33.37,19.27a17.48,17.48,0,0,1,2.93-.23h.7ZM202,167.3,183.51,178v2.31l20-11.55.5-.29V136h-2ZM165.22,43.18a19.59,19.59,0,0,1,1.52,3.19L202,66.73V84h2V65.58Zm-50.3,174.4-29.41-17v2.31l29.41,17,34.59-20v-2.31ZM26.33,65.29l-.5.29V81h2V66.73L64.51,45.55v-2.3Z"/><path class="cls-2" d="M167.64,49.31a33.87,33.87,0,0,1,.87,8,36.64,36.64,0,0,1-.33,5l20.74,12v85.45l-74,42.72-74-42.72V74.29l74-42.72L136.7,44.14a17.46,17.46,0,0,1,1.59-2.53A15.08,15.08,0,0,1,144,37a11.54,11.54,0,0,1,1.41-.57L114.92,18.87l-85,49.07v98.15l85,49.08,85-49.08V67.94Z"/><path class="cls-3" d="M73.59,143.61A16.22,16.22,0,0,0,71,138a11.13,11.13,0,0,0-4.18-3.39,14.09,14.09,0,0,0-11.15,0A11.13,11.13,0,0,0,51.47,138a16.23,16.23,0,0,0-2.62,5.58,29.15,29.15,0,0,0-.91,7.68,32.15,32.15,0,0,0,.4,5.29l19.06,11h0A11.27,11.27,0,0,0,71,164.51,16.24,16.24,0,0,0,73.59,159a32.47,32.47,0,0,0,0-15.35Zm-8.87,15.94c-1,1.79-2.13,2.69-3.5,2.69s-2.52-.9-3.49-2.69-1.45-4.54-1.45-8.26.49-6.51,1.45-8.3,2.13-2.68,3.49-2.68,2.53.89,3.5,2.68,1.44,4.55,1.44,8.3S65.68,157.76,64.72,159.55Z"/><path class="cls-4" d="M156,100.48a20.91,20.91,0,0,0-3.33-7.14A14.26,14.26,0,0,0,147.35,89a18,18,0,0,0-14.25,0,14.15,14.15,0,0,0-5.34,4.33,20.74,20.74,0,0,0-3.35,7.14,41.71,41.71,0,0,0,0,19.62,20.71,20.71,0,0,0,3.35,7.1,14.15,14.15,0,0,0,5.34,4.33,18,18,0,0,0,14.25,0,14.26,14.26,0,0,0,5.35-4.33,20.87,20.87,0,0,0,3.33-7.1,41.37,41.37,0,0,0,0-19.62ZM144.7,120.86c-1.24,2.28-2.73,3.43-4.48,3.43s-3.22-1.15-4.46-3.43-1.85-5.81-1.85-10.56.62-8.33,1.85-10.62,2.72-3.42,4.46-3.42,3.24,1.14,4.48,3.42,1.84,5.82,1.84,10.62S145.92,118.57,144.7,120.86Z"/><path class="cls-5" d="M163.59,49.61A16.22,16.22,0,0,0,161,44a11.13,11.13,0,0,0-4.18-3.39,14.09,14.09,0,0,0-11.15,0A11.13,11.13,0,0,0,141.47,44a15.06,15.06,0,0,0-2.26,4.42c-.13.37-.25.76-.36,1.16a29.15,29.15,0,0,0-.91,7.68,29,29,0,0,0,.91,7.67,16.25,16.25,0,0,0,2.62,5.55,11.13,11.13,0,0,0,4.18,3.39,14.09,14.09,0,0,0,11.15,0A11.13,11.13,0,0,0,161,70.51,16.24,16.24,0,0,0,163.59,65q.28-1,.48-2.16a32.3,32.3,0,0,0,.44-5.51A29.13,29.13,0,0,0,163.59,49.61Zm-8.87,15.94c-1,1.79-2.13,2.69-3.5,2.69s-2.52-.9-3.49-2.69-1.45-4.54-1.45-8.26a28.26,28.26,0,0,1,.32-4.58A11.69,11.69,0,0,1,147.73,49q1.46-2.68,3.49-2.68c1.37,0,2.53.89,3.5,2.68s1.44,4.55,1.44,8.3c0,.32,0,.63,0,.94A16.82,16.82,0,0,1,154.72,65.55Z"/><path class="cls-5" d="M163.59,49.61A16.22,16.22,0,0,0,161,44a11.13,11.13,0,0,0-4.18-3.39,14.09,14.09,0,0,0-11.15,0A11.13,11.13,0,0,0,141.47,44a15.06,15.06,0,0,0-2.26,4.42c-.13.37-.25.76-.36,1.16a29.15,29.15,0,0,0-.91,7.68,29,29,0,0,0,.91,7.67,16.25,16.25,0,0,0,2.62,5.55,11.13,11.13,0,0,0,4.18,3.39,14.09,14.09,0,0,0,11.15,0A11.13,11.13,0,0,0,161,70.51,16.24,16.24,0,0,0,163.59,65q.28-1,.48-2.16a32.3,32.3,0,0,0,.44-5.51A29.13,29.13,0,0,0,163.59,49.61Zm-8.87,15.94c-1,1.79-2.13,2.69-3.5,2.69s-2.52-.9-3.49-2.69-1.45-4.54-1.45-8.26a28.26,28.26,0,0,1,.32-4.58A11.69,11.69,0,0,1,147.73,49q1.46-2.68,3.49-2.68c1.37,0,2.53.89,3.5,2.68s1.44,4.55,1.44,8.3c0,.32,0,.63,0,.94A16.82,16.82,0,0,1,154.72,65.55Z"/><path class="cls-6" d="M183.07,25.41a10.38,10.38,0,0,0-1.66-3.54,7,7,0,0,0-2.65-2.14,8.92,8.92,0,0,0-7.07,0A7,7,0,0,0,169,21.87a10.38,10.38,0,0,0-1.66,3.54,18.37,18.37,0,0,0-.58,4.87,18.19,18.19,0,0,0,.58,4.86A10.32,10.32,0,0,0,169,38.67a7,7,0,0,0,2.65,2.14,8.92,8.92,0,0,0,7.07,0,7,7,0,0,0,2.65-2.14,10.32,10.32,0,0,0,1.66-3.53,18.61,18.61,0,0,0,.58-4.86A18.8,18.8,0,0,0,183.07,25.41Zm-5.63,10.11c-.61,1.13-1.35,1.7-2.22,1.7s-1.6-.57-2.21-1.7a11.48,11.48,0,0,1-.92-5.24A11.54,11.54,0,0,1,173,25c.61-1.13,1.35-1.7,2.21-1.7s1.61.57,2.22,1.7a11.54,11.54,0,0,1,.92,5.26A11.48,11.48,0,0,1,177.44,35.52Z"/><path class="cls-7" d="M91.59,174.61A16.22,16.22,0,0,0,89,169a11.13,11.13,0,0,0-4.18-3.39,14.09,14.09,0,0,0-11.15,0,11.08,11.08,0,0,0-4.05,3.22l6.88,4a3.46,3.46,0,0,1,2.74-1.52c1.37,0,2.53.89,3.5,2.68a10.75,10.75,0,0,1,1,3l8.78,5.07A28.56,28.56,0,0,0,91.59,174.61Z"/><path class="cls-8" d="M134.59,174.61A16.22,16.22,0,0,0,132,169a11.13,11.13,0,0,0-4.18-3.39,14.09,14.09,0,0,0-11.15,0,11.13,11.13,0,0,0-4.18,3.39,16.23,16.23,0,0,0-2.62,5.58,32.82,32.82,0,0,0,0,15.35,18.2,18.2,0,0,0,1,2.7l4.1,2.37,5-2.86a7,7,0,0,1-1.15-1.62c-1-1.79-1.45-4.54-1.45-8.26s.49-6.51,1.45-8.3,2.13-2.68,3.49-2.68,2.53.89,3.5,2.68,1.44,4.55,1.44,8.3a24.74,24.74,0,0,1-.61,6l9-5.16c0-.28,0-.57,0-.86A29.13,29.13,0,0,0,134.59,174.61Z"/><path class="cls-9" d="M121.49,136.11a17.73,17.73,0,0,0-2.91-6.13,12.31,12.31,0,0,0-4.65-3.72,15.91,15.91,0,0,0-12.41,0A12.16,12.16,0,0,0,96.87,130,17.73,17.73,0,0,0,94,136.11,35.35,35.35,0,0,0,94,153a17.75,17.75,0,0,0,2.91,6.1,12.25,12.25,0,0,0,4.65,3.72,15.91,15.91,0,0,0,12.41,0,12.41,12.41,0,0,0,4.65-3.72,17.75,17.75,0,0,0,2.91-6.1,35.35,35.35,0,0,0,0-16.86Zm-9.88,17.51c-1.07,2-2.37,2.95-3.89,2.95s-2.81-1-3.88-2.95-1.61-5-1.61-9.07.53-7.16,1.61-9.12,2.37-3,3.88-3,2.82,1,3.89,3,1.61,5,1.61,9.12S112.68,151.66,111.61,153.62Z"/><path class="cls-10" d="M172.67,147.83a14,14,0,0,0-2.32-4.87,9.72,9.72,0,0,0-3.69-3,12.68,12.68,0,0,0-9.87,0,9.83,9.83,0,0,0-3.7,3,14.13,14.13,0,0,0-2.31,4.87,28.16,28.16,0,0,0,0,13.41,14.11,14.11,0,0,0,2.31,4.85,9.83,9.83,0,0,0,3.7,3,10.63,10.63,0,0,0,2,.67l13.75-7.94c.06-.18.11-.36.16-.54a28.16,28.16,0,0,0,0-13.41Zm-7.86,13.93q-1.27,2.34-3.09,2.34t-3.09-2.34q-1.27-2.34-1.28-7.22t1.28-7.25q1.29-2.34,3.09-2.34t3.09,2.34q1.29,2.34,1.29,7.25T164.81,161.76Z"/><path class="cls-11" d="M80.78,116,70,122.67v8l8.31-3v34.89H89.15V116Z"/><path class="cls-12" d="M176.78,121,166,127.67v8l8.31-3v28.12l8.22-4.75V121Z"/><path class="cls-13" d="M114.41,64l-7.57,4.67v5.6l5.81-2.12V96.54h7.62V64Z"/><path class="cls-14" d="M158.2,0l-5.71,3.52V7.75l4.38-1.61v18.4h5.75V0Z"/><path class="cls-15" d="M141.52,153l-8.5,5.24v6.3l6.52-2.39v18.66l8.55-4.93V153Z"/><path class="cls-16" d="M100.36,169l-7.11,4.38v5.26l5.46-2v9l7.14,4.12V169Z"/><path class="cls-17" d="M55.34,276.24v6.12H.74v-6.12Z"/><path class="cls-17" d="M91.28,277.74a14,14,0,0,1-1.56,1c6.3,2.76,16.92,5.34,25,6.48a24.1,24.1,0,0,0-3.42,4.5c-7.92-1.56-18.84-5-25.68-8.46A106.12,106.12,0,0,1,61.46,290a23.56,23.56,0,0,0-3.06-4.26c10.08-2,22.2-5.94,28.68-10.62Zm-25.44-5.58h-5V261.42H83.54v-2.76h-19v-4.14H108.2v4.14H88.94v2.76H112v10.74h-5.16v-7H88.94v9.06h-5.4v-9.06H65.84Zm37.74,17,3.6,2.52c-3.42,3.48-9.06,7-14,9.6,2.64,1,5,1.92,6.84,2.7l-2.34,4.08c-5.46-2.7-16.32-6.42-24.54-8.58L75.32,296c3.54.84,7.62,2,11.58,3.18a68.76,68.76,0,0,0,10.86-5.58H66.62V289.5H86.24a42.2,42.2,0,0,0-4.38-4.26l3.36-2.4a36.82,36.82,0,0,1,5.4,5L88.4,289.5h14.4ZM67.1,273.72h14v3.36h-14ZM81,267.78V271H68.36v-3.24Zm23.34,0V271H91.46v-3.24Zm-12.9,5.94H105.8v3.36H91.46Z"/><path class="cls-17" d="M139.46,298.26c-7.44,2-15.18,4.14-21.12,5.7l-1.2-5.1c1-.24,2-.42,3.12-.72V278.4h4v18.78l3.12-.72V274.08h-7.14V255.36h17.46v18.72H132v6.72h6v4.86h-6v9.6l6.84-1.68Zm-14.7-28.86H133v-9.3h-8.22Zm22.26-17h5.1v25.2c0,10.86-1.26,23.4-12.12,30a22.42,22.42,0,0,0-3.54-4.08c6.78-3.48,9.24-9.9,10.08-16.56-2.46,2-5,3.9-7.26,5.76l-3.06-5.16c2.7-1.38,6.72-3.78,10.74-6.3.06-1.26.06-2.46.06-3.66v-4.32l-4.08,1.86c-.54-3.54-2.7-8.88-5-12.84l4.38-1.92a51.74,51.74,0,0,1,4.68,10.2Zm19.92,49.26c1.08,0,1.26-1.56,1.44-6.78A11.64,11.64,0,0,0,173,297c-.48,7-1.74,9.6-5.7,9.6h-5.22c-4.44,0-5.7-1.62-5.7-7.8V252.36h5.22v19.5a76,76,0,0,0,5.4-12l5.16,2.46a143.38,143.38,0,0,1-7.32,12.9l-3.24-1.8v6.48l1-1A91.85,91.85,0,0,1,173,288l-3.6,4a87.35,87.35,0,0,0-7.8-7.56V298.8c0,2.4.18,2.82,1.44,2.82Z"/><path class="cls-17" d="M199.64,298.56c-.24-1.08-.54-2.22-1-3.54-15.72,3.78-18,4.62-19.56,5.46v-.18a.22.22,0,0,0-.06.18c-.3-1.08-1.2-3.72-1.74-5,1-.36,1.8-1.92,2.82-4.08a105.91,105.91,0,0,0,4.5-15.18h-7.86v-5H203v5H190.4a117.36,117.36,0,0,1-5.64,17l12.48-2.82c-1-2.82-2.1-5.82-3.18-8.34l4.5-1.2a105.84,105.84,0,0,1,5.88,16.14Zm2.28-36.48h-23.1v-4.92h23.1ZM230,265.74s-.06,1.92-.06,2.7c-.72,24.3-1.38,32.82-3.42,35.46a6.06,6.06,0,0,1-4.56,2.64,52.22,52.22,0,0,1-8.16,0,14.44,14.44,0,0,0-1.68-5.4c3.18.24,6,.24,7.26.24a2.27,2.27,0,0,0,2.28-.9c1.44-1.74,2.16-9.36,2.76-29.4h-7.74c-.78,14.82-3.3,28-11.94,36.3a14.54,14.54,0,0,0-4.2-4.14c7.8-7.2,10-18.84,10.74-32.16h-7.5v-5.34h7.68c.12-4,.12-8.1.12-12.3h5.52c0,4.2-.06,8.28-.18,12.3Z"/><path class="cls-17" d="M0,330.34c0-6.93,3.87-11.14,9.39-11.14s9.39,4.21,9.39,11.14S14.91,341.6,9.39,341.6,0,337.26,0,330.34Zm15.93,0c0-5.42-2.61-8.75-6.54-8.75s-6.54,3.33-6.54,8.75,2.58,8.87,6.54,8.87S15.93,335.73,15.93,330.34Z"/><path class="cls-17" d="M24.26,319.61h2.88l8,13.62,2.34,4.45h.15c-.15-2.18-.36-4.6-.36-6.84V319.61h2.64v21.6H37.07l-8-13.64-2.37-4.45h-.12c.12,2.18.33,4.48.33,6.75v11.34H24.26Z"/><path class="cls-17" d="M46.67,319.61H59.35v2.3h-9.9v6.78h8.34V331H49.45v7.87H59.68v2.32h-13Z"/><path class="cls-17" d="M71,339.59l11.6-17.68H72.07v-2.3H86v1.59l-11.6,17.69H86.16v2.32H71Z"/><path class="cls-17" d="M91.35,319.61H104v2.3h-9.9v6.78h8.34V331H94.14v7.87h10.23v2.32h-13Z"/><path class="cls-17" d="M121.82,341.21l-5.34-9.16h-4v9.16h-2.79v-21.6h6.89c4.47,0,7.68,1.56,7.68,6.07,0,3.36-2,5.37-5,6.07l5.64,9.46Zm-9.29-11.37h3.68c3.45,0,5.34-1.36,5.34-4.16s-1.89-3.86-5.34-3.86h-3.68Z"/><path class="cls-17" d="M128.27,330.34c0-6.93,3.87-11.14,9.39-11.14s9.39,4.21,9.39,11.14-3.87,11.26-9.39,11.26S128.27,337.26,128.27,330.34Zm15.93,0c0-5.42-2.61-8.75-6.54-8.75s-6.54,3.33-6.54,8.75,2.58,8.87,6.54,8.87S144.2,335.73,144.2,330.34Z"/><path class="cls-17" d="M160,319.61h6.54c4.47,0,7.56,1.48,7.56,5.28a4.7,4.7,0,0,1-3.24,4.68v.15c2.64.5,4.5,2.21,4.5,5.16,0,4.24-3.42,6.33-8.34,6.33h-7Zm6.06,9.2c3.78,0,5.31-1.39,5.31-3.57,0-2.53-1.77-3.48-5.19-3.48h-3.39v7.05Zm.57,10.22c3.78,0,6-1.32,6-4.24,0-2.68-2.16-3.89-6-3.89h-3.84V339Z"/><path class="cls-17" d="M180.45,319.61h12.69v2.3h-9.9v6.78h8.34V331h-8.34v7.87h10.23v2.32h-13Z"/><path class="cls-17" d="M208.92,334.61h-8l-2.13,6.6h-2.82l7.47-21.6h3.09l7.46,21.6H211Zm-.69-2.18-1-3.3c-.81-2.44-1.5-4.8-2.22-7.31h-.12c-.69,2.54-1.41,4.87-2.19,7.31l-1.08,3.3Z"/><path class="cls-17" d="M220.55,321.91h-6.66v-2.3H230v2.3h-6.66v19.3h-2.79Z"/></g></g></svg>